<svg width="100" height="100" viewBox="0 0 100 100" xmlns="http://www.w3.org/2000/svg">
  <defs>
    <linearGradient id="globeGradient" x1="0%" y1="0%" x2="100%" y2="100%">
      <stop offset="0%" style="stop-color:#00d4ff;stop-opacity:1" />
      <stop offset="100%" style="stop-color:#0099cc;stop-opacity:1" />
    </linearGradient>
  </defs>
  
  <!-- Main circle -->
  <circle cx="50" cy="50" r="45" fill="url(#globeGradient)" stroke="#0080b3" stroke-width="2"/>
  
  <!-- Vertical lines (longitude) -->
  <path d="M50 5 Q30 25 30 50 Q30 75 50 95" fill="none" stroke="#ffffff" stroke-width="1.5" opacity="0.8"/>
  <path d="M50 5 Q70 25 70 50 Q70 75 50 95" fill="none" stroke="#ffffff" stroke-width="1.5" opacity="0.8"/>
  <path d="M50 5 L50 95" fill="none" stroke="#ffffff" stroke-width="1.5" opacity="0.8"/>
  
  <!-- Horizontal lines (latitude) -->
  <path d="M5 50 Q25 30 50 30 Q75 30 95 50" fill="none" stroke="#ffffff" stroke-width="1.5" opacity="0.8"/>
  <path d="M5 50 Q25 70 50 70 Q75 70 95 50" fill="none" stroke="#ffffff" stroke-width="1.5" opacity="0.8"/>
  <path d="M5 50 L95 50" fill="none" stroke="#ffffff" stroke-width="1.5" opacity="0.8"/>
  
  <!-- Additional curved lines for more detail -->
  <path d="M15 35 Q35 25 50 30 Q65 35 85 25" fill="none" stroke="#ffffff" stroke-width="1" opacity="0.6"/>
  <path d="M15 65 Q35 75 50 70 Q65 65 85 75" fill="none" stroke="#ffffff" stroke-width="1" opacity="0.6"/>
</svg>
